<svg width="268" height="268" viewBox="0 0 268 268" fill="none" xmlns="http://www.w3.org/2000/svg">
<rect width="268" height="268" rx="134" fill="#F2F2F2"/>
<g opacity="0.236">
<path d="M96.0293 180.029C96.0293 180.029 93.0884 178.83 89.7279 179.369C86.3674 179.908 85.4674 184.829 85.4674 184.829C85.4674 184.829 79.0463 197.973 76.2858 202.414C73.5252 206.855 72.5056 208.415 72.5056 208.415C72.5056 208.415 71.1253 209.435 78.0267 212.076C84.9281 214.717 105.573 218.618 127.299 225.339C149.024 232.06 158.025 229.78 160.907 228.22C163.788 226.659 167.269 220.177 167.509 217.777C167.748 215.377 167.387 204.933 167.387 204.933C167.387 204.933 164.841 200.029 163.059 198.374L162.296 202.067C162.296 202.067 164.334 204.485 163.526 206.268C162.925 207.598 161.234 211.53 142.945 206.735C124.654 201.94 101.23 188.19 101.23 188.19C101.23 188.19 92.4042 183.607 93.0817 182.546C93.7609 181.484 95.0333 182.504 95.0333 182.504L96.0293 180.029Z" fill="#23313E"/>
</g>
<g opacity="0.2389">
<path d="M181.22 64.4893C181.22 64.4893 186.482 69.7508 188.858 78.9173C188.858 78.9173 191.914 86.0462 193.951 89.1017C195.989 92.1571 198.874 96.7395 198.534 99.1175C198.195 101.494 197.167 104.158 197.507 106.364C197.848 108.57 200.741 111.338 202.098 113.375C203.457 115.413 207.36 120.674 208.039 124.748C208.718 128.821 209.567 134.932 210.924 136.8C212.283 138.667 211.683 142.568 209.625 144.668C208.239 146.082 204.967 146.052 203.197 145.845C201.598 145.658 199.235 144.579 199.235 144.579C199.235 144.579 199.043 149.021 200.401 150.55C201.759 152.077 198.173 155.702 198.173 155.702C198.173 155.702 201.737 158.587 200.72 160.284C199.702 161.982 197.26 163.958 198.109 166.675C198.958 169.392 201.08 170.664 201.589 173.041C202.098 175.417 202.184 180.085 200.996 181.953C199.808 183.82 196.427 185.825 193.881 186.589C191.334 187.352 181.977 186.525 181.977 186.525C181.977 186.525 174.685 184.838 172.308 184.159C169.932 183.479 167.301 185.177 166.792 186.619C166.283 188.062 163.482 194.003 162.973 198.757C162.465 203.51 159.918 207.074 152.535 211.997C145.151 216.92 138.531 210.809 138.531 210.809L92.1058 190.099L97.2831 176.944L103.394 152.5L135.816 117.193L151.348 84.9406L169.086 70.9373L181.22 64.4893Z" fill="#23313E"/>
</g>
<path d="M179.862 61.4336C179.862 61.4336 185.124 66.6952 187.5 75.8616C187.5 75.8616 190.555 82.9905 192.593 86.046C194.631 89.1015 197.516 93.6838 197.177 96.0618C196.838 98.4381 195.81 101.103 196.151 103.309C196.489 105.515 199.385 108.282 200.743 110.32C202.102 112.357 206.005 117.619 206.684 121.692C207.363 125.766 208.212 131.877 209.569 133.744C210.928 135.611 210.328 139.513 208.27 141.613C206.884 143.027 203.612 142.996 201.842 142.789C200.243 142.602 197.88 141.523 197.88 141.523C197.88 141.523 197.688 145.966 199.046 147.493C200.404 149.02 196.818 152.645 196.818 152.645C196.818 152.645 200.383 155.53 199.365 157.227C198.347 158.924 195.905 160.901 196.754 163.618C197.603 166.335 199.725 167.607 200.234 169.983C200.743 172.36 200.829 177.028 199.641 178.895C198.453 180.763 195.072 182.768 192.526 183.532C189.979 184.295 180.622 183.468 180.622 183.468C180.622 183.468 173.33 181.781 170.953 181.101C168.577 180.422 165.946 182.119 165.437 183.562C164.928 185.005 162.127 190.945 161.619 195.7C161.11 200.452 158.563 204.017 151.18 208.939C143.796 213.862 137.176 207.751 137.176 207.751L90.7509 187.042L95.9282 173.886L102.039 149.443L134.461 114.135L149.993 81.8833L167.731 67.8799L179.862 61.4336Z" fill="#9F8351"/>
<path d="M95.0743 169.308C95.0743 169.308 95.0743 171.09 95.923 173.891C96.7717 176.692 103.562 171.09 103.562 171.09C103.562 171.09 107.635 173.466 112.303 171.09C116.971 168.714 118.16 162.603 118.16 162.603L106.702 161.669L93.6313 161.414L95.0743 169.308Z" fill="#1A1A1A"/>
<path d="M151.345 94.1103C151.345 94.1103 157.117 100.052 152.024 112.018C152.024 112.018 152.958 123.561 142.518 131.454C132.079 139.347 136.832 112.867 136.832 112.867L149.818 92.498L151.345 94.1103Z" fill="#1A1A1A"/>
<g opacity="0.1858">
<path d="M74.5702 208.561C74.5702 208.561 56.5659 194.158 52.7251 139.424C48.8842 84.6899 80.5716 60.6859 96.1759 56.1238C111.78 51.5633 128.583 44.8406 156.431 49.1617C156.431 49.1617 154.271 44.121 164.354 46.5208C174.435 48.9207 183.319 55.6435 183.319 55.6435L187.64 68.8463C187.64 68.8463 177.558 72.2068 160.274 91.411C160.274 91.411 144.669 121.179 134.827 131.741C124.985 142.303 126.785 146.745 104.34 159.348C81.8946 171.951 86.9353 180.232 86.9353 180.232L90.3886 191.273L87.2404 199.502L75.6269 207.422L74.5702 208.561Z" fill="#23313E"/>
</g>
<path d="M94.6709 176.974C94.6709 176.974 91.73 175.774 88.3695 176.313C85.009 176.852 84.109 181.775 84.109 181.775C84.109 181.775 77.6879 194.919 74.9274 199.36C72.1668 203.801 71.1472 205.361 71.1472 205.361C71.1472 205.361 69.7669 206.381 76.6683 209.022C83.5697 211.663 104.215 215.564 125.94 222.285C147.666 229.006 156.667 226.726 159.549 225.166C162.429 223.605 165.911 217.123 166.15 214.723C166.39 212.323 166.031 201.879 166.031 201.879C166.031 201.879 163.484 196.975 161.703 195.32L160.939 199.013C160.939 199.013 162.977 201.431 162.17 203.214C161.568 204.544 159.878 208.476 141.588 203.681C123.298 198.886 99.8735 185.136 99.8735 185.136C99.8735 185.136 91.0475 180.553 91.725 179.492C92.4042 178.43 93.6766 179.45 93.6766 179.45L94.6709 176.974Z" fill="url(#paint0_linear_10_374)"/>
<g opacity="0.236">
<path d="M104.727 146.985C104.727 146.985 121.051 165.95 137.736 167.15C170.086 173.482 139.509 196.564 162.102 234.366C152.354 216.485 157.422 196.997 158.022 176.873C158.245 169.422 157.542 163.429 153.221 149.266C148.037 132.274 144.218 128.02 144.098 120.099C143.977 112.177 138.816 104.495 138.816 104.495L104.727 146.985Z" fill="#23313E"/>
</g>
<g opacity="0.233">
<path d="M97.7639 170.34C97.7639 170.34 97.7639 172.122 98.6126 174.923C99.4613 177.724 106.251 172.122 106.251 172.122C106.251 172.122 110.325 174.499 114.993 172.122C119.661 169.746 120.849 163.635 120.849 163.635L109.391 162.701L96.3209 162.446L97.7639 170.34Z" fill="#1A1A1A"/>
<path d="M154.034 95.1425C154.034 95.1425 159.806 101.084 154.713 113.051C154.713 113.051 155.647 124.593 145.208 132.487C134.768 140.38 139.521 113.9 139.521 113.9L152.507 93.5303L154.034 95.1425Z" fill="#1A1A1A"/>
</g>
<path d="M101.333 146.307C101.333 146.307 117.657 165.272 134.342 166.471C166.691 172.803 136.115 195.885 158.708 233.687C148.96 215.806 154.028 196.318 154.628 176.194C154.849 168.743 154.148 162.75 149.826 148.587C144.642 131.595 140.823 127.342 140.704 119.421C140.584 111.498 135.422 103.816 135.422 103.816L101.333 146.307Z" fill="url(#paint1_linear_10_374)"/>
<path d="M72.1652 203.801C72.1652 203.801 54.1609 189.398 50.3201 134.664C46.4792 79.9319 78.1666 55.9262 93.771 51.3641C109.375 46.8036 126.178 40.0808 154.026 44.402C154.026 44.402 151.866 39.3612 161.947 41.7611C172.03 44.161 180.912 50.8837 180.912 50.8837L185.233 64.0865C185.233 64.0865 175.15 67.447 157.867 86.6512C157.867 86.6512 142.263 116.419 132.42 126.981C122.578 137.543 124.378 141.985 101.933 154.588C79.4879 167.191 84.5287 175.473 84.5287 175.473L87.9819 186.513L84.8337 194.743L73.2202 202.662L72.1652 203.801Z" fill="url(#paint2_linear_10_374)"/>
<g opacity="0.3687">
<path d="M76.3293 200.37C76.3293 200.37 78.0094 193.048 77.8899 183.086C77.7698 173.124 75.7294 167.962 76.8096 163.761C77.8898 159.561 88.8123 147.078 95.054 142.877C101.295 138.676 113.419 117.911 114.259 114.91C115.099 111.91 134.063 81.3023 146.786 75.5409C159.509 69.7795 167.911 68.8193 167.911 68.8193L146.546 79.0218C146.546 79.0218 142.105 78.7816 133.103 92.9453C124.101 107.109 111.258 123.673 111.258 123.673C111.258 123.673 105.496 134.475 100.575 140.357C100.575 140.357 87.3718 151.039 82.5705 161.241C77.7693 171.444 83.0509 183.566 83.0509 183.566C83.0509 183.566 84.3713 185.367 76.3293 200.37Z" fill="#23313E"/>
<path d="M78.1295 172.284C78.1295 172.284 72.7293 163.072 81.2501 156.08C85.9313 152.239 92.8844 152.445 100.455 154.639C108.05 155.583 117.287 165.868 122.78 167.002C122.78 167.002 122.06 169.403 117.859 169.043C113.658 168.683 111.377 170.603 111.377 170.603C111.377 170.603 106.816 173.124 98.6539 170.964C90.4919 168.803 89.0519 168.203 83.4106 170.244C77.7692 172.284 79.3298 175.285 79.3298 175.285L78.1295 172.284Z" fill="#23313E"/>
<path d="M79.9302 185.726C79.9302 185.726 86.1714 185.366 91.5731 177.805C96.9743 170.243 95.8941 164.602 95.8941 164.602C76.8222 167.484 77.9324 167.263 79.9302 185.726Z" fill="#23313E"/>
<path d="M78.3697 161.961C78.3697 161.961 70.5678 154.039 72.6082 140.716C74.6486 127.393 79.8101 120.791 79.8101 120.791C79.8101 120.791 81.6104 117.55 78.85 113.229C78.85 113.229 86.172 115.75 88.5721 126.673C90.9727 137.595 89.7724 144.197 86.4116 149.958C83.0508 155.719 78.3697 161.961 78.3697 161.961Z" fill="#23313E"/>
<path d="M95.7735 143.477C95.7735 143.477 90.2523 140.117 91.5727 125.233C92.8931 110.349 96.6141 102.187 96.6141 102.187C96.6141 102.187 99.8548 94.6255 95.8941 88.3838C95.8941 88.3838 107.297 91.2642 107.297 109.029C107.297 126.793 102.376 135.915 102.376 135.915L95.7735 143.477Z" fill="#23313E"/>
<path d="M139.584 146.958C139.584 146.958 137.064 144.438 133.583 143.477C130.102 142.517 130.222 141.317 130.222 141.317C130.222 141.317 129.022 142.878 120.26 144.798C111.498 146.718 99.0147 143.118 99.0147 143.118C99.0147 143.118 102.736 131.835 116.779 128.714C130.822 125.594 137.184 134.476 137.184 134.476C137.184 134.476 140.544 139.037 139.344 141.438C139.344 141.437 141.024 143.477 139.584 146.958Z" fill="#23313E"/>
<path d="M109.097 125.953C109.097 125.953 108.017 114.31 117.139 100.987C126.261 87.664 145.346 88.2639 145.346 88.2639C145.346 88.2639 140.185 91.3845 136.464 99.5465C132.743 107.709 128.302 118.391 119.78 121.032C111.258 123.672 109.097 125.953 109.097 125.953Z" fill="#23313E"/>
<path d="M121.34 107.109C121.34 107.109 132.743 94.1459 147.866 92.105C162.989 90.0641 162.269 88.9844 162.269 88.9844C162.269 88.9844 154.467 101.587 147.145 107.109C139.824 112.63 135.863 116.711 130.221 116.591C124.58 116.471 117.618 113.35 117.618 113.35L121.34 107.109Z" fill="#23313E"/>
<path d="M144.025 78.0612C144.025 78.0612 141.145 74.8205 143.065 68.6988C144.986 62.5771 154.228 54.7753 154.228 54.7753C154.228 54.7753 164.43 46.8534 171.992 43.973C171.992 43.973 175.833 42.4124 176.673 40.252C176.673 40.252 176.499 55.6114 171.872 61.3768C165.189 69.7041 154.42 74.7784 144.025 78.0612Z" fill="#23313E"/>
<path d="M151.827 58.7369C151.827 58.7369 153.027 54.0557 156.508 48.5344C159.989 43.0131 155.068 38.0918 155.068 38.0918C155.068 38.0918 156.508 42.2927 153.507 44.2135C150.506 46.1343 148.946 44.5737 145.345 51.2953C141.744 58.0169 139.704 66.7788 140.184 74.9409C140.665 83.1029 141.385 80.1019 141.385 80.1019L156.628 67.3787L151.827 58.7369Z" fill="#23313E"/>
<path d="M170.431 55.3765C170.431 55.3765 180.754 45.054 190.596 43.7336C200.438 42.4132 200.079 42.173 211.001 42.8935C211.001 42.8935 215.322 42.8935 216.642 41.2129C216.642 41.2129 211.241 53.6959 196.838 60.7777C182.435 67.8595 165.99 60.2974 165.99 60.2974L170.431 55.3765Z" fill="#23313E"/>
<path d="M183.995 59.8169C183.995 59.8169 189.996 54.0555 202.359 62.2176C202.359 62.2176 205 63.8982 209.321 70.6198C209.321 70.6198 211.481 73.8605 215.922 73.2606C215.922 73.2606 214.002 76.6214 205.12 76.0215C196.238 75.4216 191.196 73.9811 188.316 70.98C185.435 67.979 183.995 59.8169 183.995 59.8169Z" fill="#23313E"/>
<path d="M141.385 80.1022C141.385 80.1022 155.068 83.9433 165.15 78.9019C175.233 73.8604 183.995 59.8174 183.995 59.8174L161.069 61.0177L141.385 80.1022Z" fill="#23313E"/>
<path d="M167.911 68.8192C167.911 68.8192 179.674 73.7406 190.476 67.739C201.278 61.7374 186.995 54.0557 186.995 54.0557L167.911 68.8192Z" fill="#23313E"/>
<path d="M117.499 105.068C117.499 105.068 111.737 97.986 115.578 81.4222C119.42 64.8585 123.02 64.138 123.5 62.4578C123.981 60.7777 123.981 57.6566 123.38 55.4961C123.38 55.4961 133.823 64.2581 130.942 80.5822C128.061 96.9058 124.34 99.4265 117.499 105.068Z" fill="#23313E"/>
</g>
<path d="M77.6872 195.279C77.6872 195.279 79.3673 187.957 79.2478 177.994C79.1277 168.032 77.0873 162.871 78.1675 158.67C79.2478 154.469 90.1702 141.986 96.4119 137.785C102.653 133.584 114.776 112.819 115.617 109.818C116.457 106.818 135.421 76.2105 148.144 70.4491C160.867 64.6877 169.269 63.7275 169.269 63.7275L147.904 73.93C147.904 73.93 143.463 73.6898 134.461 87.8535C125.459 102.017 112.615 118.581 112.615 118.581C112.615 118.581 106.854 129.383 101.933 135.265C101.933 135.265 88.7297 145.947 83.9284 156.149C79.1272 166.352 84.4088 178.475 84.4088 178.475C84.4088 178.475 85.7292 180.275 77.6872 195.279Z" fill="url(#paint3_linear_10_374)"/>
<path d="M79.4874 167.192C79.4874 167.192 74.0872 157.98 82.608 150.988C87.2892 147.147 94.2423 147.353 101.813 149.548C109.408 150.492 118.645 160.777 124.138 161.911C124.138 161.911 123.418 164.311 119.216 163.951C115.016 163.591 112.735 165.512 112.735 165.512C112.735 165.512 108.174 168.032 100.012 165.872C91.8498 163.711 90.4098 163.111 84.7685 165.152C79.1271 167.192 80.6877 170.193 80.6877 170.193L79.4874 167.192Z" fill="url(#paint4_linear_10_374)"/>
<path d="M81.2881 180.635C81.2881 180.635 87.5293 180.274 92.931 172.713C98.3322 165.151 97.252 159.51 97.252 159.51C78.1801 162.392 79.2903 162.171 81.2881 180.635Z" fill="url(#paint5_linear_10_374)"/>
<path d="M79.7276 156.869C79.7276 156.869 71.9258 148.947 73.9661 135.624C76.0065 122.301 81.1681 115.699 81.1681 115.699C81.1681 115.699 82.9683 112.459 80.2079 108.138C80.2079 108.138 87.5299 110.658 89.93 121.581C92.3306 132.503 91.1303 139.105 87.7695 144.866C84.4088 150.627 79.7276 156.869 79.7276 156.869Z" fill="url(#paint6_linear_10_374)"/>
<path d="M97.1319 138.385C97.1319 138.385 91.6107 135.024 92.9311 120.14C94.2515 105.256 97.9725 97.0944 97.9725 97.0944C97.9725 97.0944 101.213 89.5328 97.2525 83.291C97.2525 83.291 108.655 86.1715 108.655 103.936C108.655 121.701 103.734 130.822 103.734 130.822L97.1319 138.385Z" fill="url(#paint7_linear_10_374)"/>
<path d="M140.942 141.866C140.942 141.866 138.422 139.345 134.941 138.385C131.46 137.425 131.58 136.224 131.58 136.224C131.58 136.224 130.38 137.785 121.618 139.705C112.856 141.625 100.373 138.025 100.373 138.025C100.373 138.025 104.094 126.742 118.137 123.622C132.18 120.501 138.542 129.383 138.542 129.383C138.542 129.383 141.902 133.944 140.702 136.345C140.702 136.345 142.382 138.385 140.942 141.866Z" fill="url(#paint8_linear_10_374)"/>
<path d="M110.455 120.861C110.455 120.861 109.375 109.218 118.497 95.8952C127.619 82.5722 146.704 83.1721 146.704 83.1721C146.704 83.1721 141.543 86.2927 137.822 94.4547C134.101 102.617 129.66 113.299 121.138 115.94C112.615 118.581 110.455 120.861 110.455 120.861Z" fill="url(#paint9_linear_10_374)"/>
<path d="M122.698 102.017C122.698 102.017 134.101 89.0541 149.224 87.0132C164.347 84.9723 163.627 83.8926 163.627 83.8926C163.627 83.8926 155.825 96.4957 148.503 102.017C141.182 107.538 137.221 111.619 131.579 111.499C125.938 111.379 118.976 108.259 118.976 108.259L122.698 102.017Z" fill="url(#paint10_linear_10_374)"/>
<path d="M145.383 72.9694C145.383 72.9694 142.503 69.7287 144.423 63.607C146.343 57.4854 155.586 49.6835 155.586 49.6835C155.586 49.6835 165.788 41.7616 173.35 38.8812C173.35 38.8812 177.191 37.3206 178.031 35.1602C178.031 35.1602 177.857 50.5196 173.23 56.285C166.547 64.6128 155.778 69.6871 145.383 72.9694Z" fill="url(#paint11_linear_10_374)"/>
<path d="M153.185 53.6451C153.185 53.6451 154.385 48.9639 157.866 43.4426C161.347 37.9214 156.426 33 156.426 33C156.426 33 157.866 37.2009 154.865 39.1217C151.864 41.0425 150.304 39.4819 146.703 46.2035C143.102 52.9251 141.062 61.687 141.542 69.8491C142.022 78.0111 142.742 75.0101 142.742 75.0101L157.986 62.2869L153.185 53.6451Z" fill="url(#paint12_linear_10_374)"/>
<path d="M171.789 50.2847C171.789 50.2847 182.112 39.9622 191.954 38.6418C201.796 37.3214 201.436 37.0812 212.359 37.8017C212.359 37.8017 216.68 37.8017 218 36.1211C218 36.1211 212.599 48.6041 198.196 55.6859C183.792 62.7677 167.348 55.2056 167.348 55.2056L171.789 50.2847Z" fill="url(#paint13_linear_10_374)"/>
<path d="M185.352 54.7251C185.352 54.7251 191.354 48.9637 203.717 57.1258C203.717 57.1258 206.358 58.8064 210.679 65.528C210.679 65.528 212.839 68.7687 217.28 68.1688C217.28 68.1688 215.36 71.5296 206.478 70.9297C197.596 70.3298 192.554 68.8893 189.674 65.8882C186.793 62.8867 185.352 54.7251 185.352 54.7251Z" fill="url(#paint14_linear_10_374)"/>
<path d="M142.742 75.0104C142.742 75.0104 156.426 78.8515 166.508 73.8101C176.59 68.7686 185.352 54.7256 185.352 54.7256L162.427 55.9259L142.742 75.0104Z" fill="url(#paint15_linear_10_374)"/>
<path d="M169.268 63.7274C169.268 63.7274 181.032 68.6488 191.834 62.6472C202.636 56.6456 188.353 48.9639 188.353 48.9639L169.268 63.7274Z" fill="url(#paint16_linear_10_374)"/>
<path d="M118.857 99.976C118.857 99.976 113.095 92.8942 116.936 76.3304C120.778 59.7667 124.378 59.0462 124.858 57.366C125.339 55.6859 125.339 52.5648 124.738 50.4043C124.738 50.4043 135.181 59.1663 132.3 75.4904C129.419 91.8145 125.698 94.3347 118.857 99.976Z" fill="url(#paint17_linear_10_374)"/>
<defs>
<linearGradient id="paint0_linear_10_374" x1="82.3142" y1="209.976" x2="137.659" y2="197.965" gradientUnits="userSpaceOnUse">
<stop stop-color="#730202"/>
<stop offset="1" stop-color="#990000"/>
</linearGradient>
<linearGradient id="paint1_linear_10_374" x1="114.51" y1="131.954" x2="163.661" y2="187.504" gradientUnits="userSpaceOnUse">
<stop stop-color="#C2C2C2"/>
<stop offset="1" stop-color="white"/>
</linearGradient>
<linearGradient id="paint2_linear_10_374" x1="86.6088" y1="92.0187" x2="179.398" y2="174.092" gradientUnits="userSpaceOnUse">
<stop stop-color="#990000"/>
<stop offset="1" stop-color="#5C0000"/>
</linearGradient>
<linearGradient id="paint3_linear_10_374" x1="102.087" y1="122.023" x2="125.738" y2="130.298" gradientUnits="userSpaceOnUse">
<stop stop-color="#339966"/>
<stop offset="1" stop-color="#4ACA8A"/>
</linearGradient>
<linearGradient id="paint4_linear_10_374" x1="89.1492" y1="159.004" x2="112.8" y2="167.278" gradientUnits="userSpaceOnUse">
<stop stop-color="#339966"/>
<stop offset="1" stop-color="#4ACA8A"/>
</linearGradient>
<linearGradient id="paint5_linear_10_374" x1="85.7111" y1="168.83" x2="109.362" y2="177.104" gradientUnits="userSpaceOnUse">
<stop stop-color="#339966"/>
<stop offset="1" stop-color="#4ACA8A"/>
</linearGradient>
<linearGradient id="paint6_linear_10_374" x1="96.407" y1="138.258" x2="120.058" y2="146.533" gradientUnits="userSpaceOnUse">
<stop stop-color="#339966"/>
<stop offset="1" stop-color="#4ACA8A"/>
</linearGradient>
<linearGradient id="paint7_linear_10_374" x1="105.041" y1="113.582" x2="128.691" y2="121.857" gradientUnits="userSpaceOnUse">
<stop stop-color="#339966"/>
<stop offset="1" stop-color="#4ACA8A"/>
</linearGradient>
<linearGradient id="paint8_linear_10_374" x1="100.743" y1="125.866" x2="124.394" y2="134.141" gradientUnits="userSpaceOnUse">
<stop stop-color="#339966"/>
<stop offset="1" stop-color="#4ACA8A"/>
</linearGradient>
<linearGradient id="paint9_linear_10_374" x1="111.211" y1="95.9457" x2="134.862" y2="104.22" gradientUnits="userSpaceOnUse">
<stop stop-color="#339966"/>
<stop offset="1" stop-color="#4ACA8A"/>
</linearGradient>
<linearGradient id="paint10_linear_10_374" x1="114.431" y1="86.7417" x2="138.082" y2="95.0164" gradientUnits="userSpaceOnUse">
<stop stop-color="#339966"/>
<stop offset="1" stop-color="#4ACA8A"/>
</linearGradient>
<linearGradient id="paint11_linear_10_374" x1="129.771" y1="42.8991" x2="153.421" y2="51.1738" gradientUnits="userSpaceOnUse">
<stop stop-color="#339966"/>
<stop offset="1" stop-color="#4ACA8A"/>
</linearGradient>
<linearGradient id="paint12_linear_10_374" x1="128.365" y1="46.9158" x2="152.016" y2="55.1905" gradientUnits="userSpaceOnUse">
<stop stop-color="#339966"/>
<stop offset="1" stop-color="#4ACA8A"/>
</linearGradient>
<linearGradient id="paint13_linear_10_374" x1="135.752" y1="25.8039" x2="159.403" y2="34.0786" gradientUnits="userSpaceOnUse">
<stop stop-color="#339966"/>
<stop offset="1" stop-color="#4ACA8A"/>
</linearGradient>
<linearGradient id="paint14_linear_10_374" x1="131.229" y1="38.7303" x2="154.88" y2="47.0051" gradientUnits="userSpaceOnUse">
<stop stop-color="#339966"/>
<stop offset="1" stop-color="#4ACA8A"/>
</linearGradient>
<linearGradient id="paint15_linear_10_374" x1="126.659" y1="51.7937" x2="150.31" y2="60.0684" gradientUnits="userSpaceOnUse">
<stop stop-color="#339966"/>
<stop offset="1" stop-color="#4ACA8A"/>
</linearGradient>
<linearGradient id="paint16_linear_10_374" x1="130.923" y1="39.6064" x2="154.573" y2="47.8811" gradientUnits="userSpaceOnUse">
<stop stop-color="#339966"/>
<stop offset="1" stop-color="#4ACA8A"/>
</linearGradient>
<linearGradient id="paint17_linear_10_374" x1="118.834" y1="74.1596" x2="142.483" y2="82.4337" gradientUnits="userSpaceOnUse">
<stop stop-color="#339966"/>
<stop offset="1" stop-color="#4ACA8A"/>
</linearGradient>
</defs>
</svg>
